<svg version="1.1" xmlns="http://www.w3.org/2000/svg" viewBox="-2002.6000000000001 -847.2 5769.799999999999 2043.6"><desc>Created with Snap</desc><defs></defs><g><g transform="matrix(44.6625,0,0,44.6625,-1695.4,-540)"><g display="none"><rect x="-69.333" y="-18.667" display="inline" fill="#a3003f" width="473.333" height="236" style=""></rect></g><g display="none"><g display="inline"><g><polygon fill="#a3003f" points="32,15.976 15.976,32 0,16.024    " style=""></polygon></g><g><polygon points="23.347,15.989 15.989,23.347 8.653,16.011    " fill="#a3003f" style=""></polygon></g><g><polygon fill="#a3003f" points="0,16.024 16.024,0 32,15.976    " style=""></polygon></g><g><polygon fill="#a3003f" points="8.653,16.011 16.011,8.653 23.347,15.989    " style=""></polygon></g></g></g><g display="none"><g display="inline"><path fill="#a3003f" d="M16,1c8.271,0,15,6.729,15,15s-6.729,15-15,15S1,24.271,1,16S7.729,1,16,1 M16,0C7.163,0,0,7.163,0,16    s7.163,16,16,16s16-7.163,16-16S24.837,0,16,0L16,0z" style=""></path></g><g display="inline"><path fill="#a3003f" d="M13.034,6.153l2.259,2.259L16,9.119l0.707-0.707l2.259-2.259l0.744,0.744l-2.259,2.259l-0.707,0.707    l0.707,0.707l2.259,2.259l-0.744,0.744l-2.259-2.259L16,10.607l-0.707,0.707l-2.259,2.259l-0.744-0.744l2.259-2.259l0.707-0.707    l-0.707-0.707L12.29,6.897L13.034,6.153 M18.966,4.738L16,7.705l-2.966-2.966l-2.158,2.158l2.966,2.966l-2.966,2.966l2.158,2.158    L16,12.021l2.966,2.966l2.158-2.158l-2.966-2.966l2.966-2.966L18.966,4.738L18.966,4.738z" style=""></path></g><g display="inline"><path fill="#a3003f" d="M13.034,18.427l2.259,2.259L16,21.393l0.707-0.707l2.259-2.259l0.744,0.744l-2.259,2.259l-0.707,0.707    l0.707,0.707l2.259,2.259l-0.744,0.744l-2.259-2.259L16,22.881l-0.707,0.707l-2.259,2.259l-0.744-0.744l2.259-2.259l0.707-0.707    l-0.707-0.707l-2.259-2.259L13.034,18.427 M18.966,17.013L16,19.979l-2.966-2.966l-2.158,2.158l2.966,2.966l-2.966,2.966    l2.158,2.158L16,24.295l2.966,2.966l2.158-2.158l-2.966-2.966l2.966-2.966L18.966,17.013L18.966,17.013z" style=""></path></g></g><g display="none"><g display="inline"><rect x="2" y="2" fill="#a3003f" width="28" height="28" style=""></rect></g><g display="inline"><g><path fill="#a3003f" d="M16,31.5C7.453,31.5,0.5,24.547,0.5,16S7.453,0.5,16,0.5S31.5,7.453,31.5,16S24.547,31.5,16,31.5z" style=""></path></g><g><g><path d="M16,1c8.271,0,15,6.729,15,15s-6.729,15-15,15S1,24.271,1,16S7.729,1,16,1 M16,0C7.163,0,0,7.163,0,16s7.163,16,16,16      s16-7.163,16-16S24.837,0,16,0L16,0z" fill="#a3003f" style=""></path></g></g></g><g display="inline"><g><polygon fill="#a3003f" points="16,11.314 13.034,14.28 11.582,12.829 14.549,9.863 11.582,6.896 13.034,5.445 16,8.412      18.966,5.445 20.418,6.896 17.451,9.863 20.418,12.829 18.966,14.28    " style=""></polygon></g><g><path d="M13.034,6.153l2.259,2.259L16,9.119l0.707-0.707l2.259-2.259l0.744,0.744l-2.259,2.259l-0.707,0.707l0.707,0.707     l2.259,2.259l-0.744,0.744l-2.259-2.259L16,10.607l-0.707,0.707l-2.259,2.259l-0.744-0.744l2.259-2.259l0.707-0.707l-0.707-0.707     L12.29,6.897L13.034,6.153 M18.966,4.738L16,7.705l-2.966-2.966l-2.158,2.158l2.966,2.966l-2.966,2.966l2.158,2.158L16,12.021     l2.966,2.966l2.158-2.158l-2.966-2.966l2.966-2.966L18.966,4.738L18.966,4.738z" fill="#a3003f" style=""></path></g></g><g display="inline"><g><polygon fill="#a3003f" points="16,23.589 13.034,26.555 11.582,25.104 14.549,22.137 11.582,19.171 13.034,17.72 16,20.686      18.966,17.72 20.418,19.171 17.451,22.137 20.418,25.104 18.966,26.555    " style=""></polygon></g><g><path d="M13.034,18.427l2.259,2.259L16,21.393l0.707-0.707l2.259-2.259l0.744,0.744l-2.259,2.259l-0.707,0.707l0.707,0.707     l2.259,2.259l-0.744,0.744l-2.259-2.259L16,22.881l-0.707,0.707l-2.259,2.259l-0.744-0.744l2.259-2.259l0.707-0.707l-0.707-0.707     l-2.259-2.259L13.034,18.427 M18.966,17.013L16,19.979l-2.966-2.966l-2.158,2.158l2.966,2.966l-2.966,2.966l2.158,2.158     L16,24.295l2.966,2.966l2.158-2.158l-2.966-2.966l2.966-2.966L18.966,17.013L18.966,17.013z" fill="#a3003f" style=""></path></g></g></g><g><g><path d="M0,16.024L15.976,32L32,15.976L16.024,0L0,16.024z M15.989,23.347l-7.336-7.336l14.694-0.022L15.989,23.347z" fill="#a3003f" style=""></path></g></g><desc>Created with Snap</desc><defs></defs></g><g><g transform="matrix(1,0,0,-1,0,0)"><path d="M314 396Q318 340 320 263Q322 187 323 109Q325 31 326 3Q304 -3 285 -3Q270 -3 257 2Q254 41 253 91Q252 141 252 179Q252 218 250 260Q249 302 245 332Q241 362 233 387Q225 413 210 427Q196 441 175 442Q154 442 141 433Q128 424 113 400L113 4Q98 -4 77 -4Q61 -4 41 1Q44 64 45 249Q46 434 53 523L98 513L101 462Q131 509 177 509Q245 509 292 449Q321 509 386 509Q412 509 431 503Q540 472 540 224Q540 188 537 127Q535 67 535 46Q535 18 538 0Q486 -14 475 -14Q465 -14 461 -12Q457 1 457 36Q457 58 460 126Q463 195 463 234Q463 442 381 444Q362 443 348 432Q334 422 314 396ZM621 213Q621 253 629 302Q638 351 655 405Q672 459 706 495Q740 531 785 531Q881 531 939 444Q997 358 997 252Q997 207 987 162Q978 118 958 75Q938 32 900 3Q863 -25 813 -29Q721 -17 671 49Q621 116 621 213ZM791 479Q756 475 732 415Q708 355 701 298Q694 242 694 199Q694 143 728 95Q763 48 806 48Q837 48 862 72Q887 96 901 131Q916 167 923 203Q931 239 931 267Q931 349 894 410Q857 471 791 479ZM1408 381L1364 384Q1343 440 1293 440Q1271 440 1246 430Q1222 420 1206 409Q1190 399 1164 379Q1164 365 1163 288Q1163 211 1164 117Q1166 23 1168 16Q1159 -14 1133 -14Q1115 -14 1098 0Q1082 15 1078 36Q1097 357 1112 521L1157 511L1160 444Q1230 502 1280 502Q1335 502 1372 477Q1410 452 1410 404Q1410 389 1408 381ZM1450 213Q1450 253 1458 302Q1467 351 1484 405Q1501 459 1535 495Q1569 531 1614 531Q1710 531 1768 444Q1826 358 1826 252Q1826 207 1816 162Q1807 118 1787 75Q1767 32 1729 3Q1692 -25 1642 -29Q1550 -17 1500 49Q1450 116 1450 213ZM1620 479Q1585 475 1561 415Q1537 355 1530 298Q1523 242 1523 199Q1523 143 1557 95Q1592 48 1635 48Q1666 48 1691 72Q1716 96 1730 131Q1745 167 1752 203Q1760 239 1760 267Q1760 349 1723 410Q1686 471 1620 479ZM2244 496L2239 453Q2197 459 2167 459Q2098 459 2053 417Q2008 376 1991 319Q1975 263 1975 194Q1975 162 1979 137Q1983 112 1993 88Q2004 64 2026 50Q2049 37 2082 37Q2126 37 2194 54Q2215 62 2227 62Q2251 62 2256 6Q2168 -22 2093 -22Q1984 -22 1945 31Q1907 85 1907 205Q1907 275 1916 327Q1926 380 1950 425Q1974 471 2019 495Q2065 519 2131 519Q2205 519 2244 496ZM2644 496L2639 453Q2597 459 2567 459Q2498 459 2453 417Q2408 376 2391 319Q2375 263 2375 194Q2375 162 2379 137Q2383 112 2393 88Q2404 64 2426 50Q2449 37 2482 37Q2526 37 2594 54Q2615 62 2627 62Q2651 62 2656 6Q2568 -22 2493 -22Q2384 -22 2345 31Q2307 85 2307 205Q2307 275 2316 327Q2326 380 2350 425Q2374 471 2419 495Q2465 519 2531 519Q2605 519 2644 496ZM2743 432L2723 483Q2749 509 2789 524Q2829 540 2868 540Q3037 540 3037 248Q3037 208 3032 130Q3028 52 3028 13Q3020 -18 2997 -18Q2979 -18 2964 0Q2949 18 2949 40Q2949 47 2950 50Q2888 -10 2818 -10Q2765 -10 2725 28Q2686 67 2686 122Q2686 215 2758 290Q2831 365 2923 365Q2927 365 2931 364Q2935 364 2940 363Q2946 362 2949 362Q2941 479 2856 479Q2806 479 2743 432ZM2952 119Q2954 189 2954 225Q2954 255 2952 309L2944 309Q2873 308 2814 256Q2756 204 2756 130Q2756 98 2775 79Q2795 60 2823 60Q2867 60 2952 119ZM3186 400L3190 4Q3175 -4 3154 -4Q3138 -4 3118 1Q3121 64 3122 249Q3123 434 3130 523L3175 513L3178 457Q3231 513 3300 513Q3335 513 3356 508Q3377 503 3396 483Q3416 464 3426 432Q3436 400 3444 340Q3452 281 3455 201Q3459 122 3460 1Q3454 -1 3437 -1Q3401 -1 3381 8Q3377 24 3377 61Q3377 80 3378 132Q3380 185 3380 214Q3380 262 3376 298Q3373 334 3363 369Q3354 404 3334 423Q3315 442 3286 442Q3253 442 3234 437Q3216 432 3208 425Q3201 418 3186 400Z" fill="#424077" style=""></path></g></g><g transform="matrix(1,0,0,1,0,873.2)"><g transform="matrix(1,0,0,-1,0,0)"><path d="M109 400L113 4Q98 -4 77 -4Q61 -4 41 1Q44 64 45 249Q46 434 53 523L98 513L101 457Q154 513 223 513Q258 513 279 508Q300 503 319 483Q339 464 349 432Q359 400 367 340Q375 281 378 201Q382 122 383 1Q377 -1 360 -1Q324 -1 304 8Q300 24 300 61Q300 80 301 132Q303 185 303 214Q303 262 299 298Q296 334 286 369Q277 404 257 423Q238 442 209 442Q176 442 157 437Q139 432 131 425Q124 418 109 400ZM867 97L877 53Q833 37 746 17Q660 -2 618 -2Q575 -2 543 26Q511 55 495 99Q479 144 471 187Q464 231 464 273Q464 523 690 523Q744 523 785 488Q826 454 826 399Q826 369 809 346Q793 323 769 309Q746 296 709 285Q673 274 645 269Q617 264 578 258Q539 252 524 249Q525 220 527 198Q530 176 537 150Q545 125 557 108Q570 92 592 81Q614 70 644 70Q680 70 732 76Q784 83 824 90Q865 97 867 97ZM528 311Q664 350 751 393Q744 426 732 441Q720 456 696 456Q635 456 585 414Q536 372 528 311ZM1406 518L1473 509Q1454 430 1413 268Q1372 107 1349 6Q1310 -1 1282 -1Q1257 -1 1236 3L1180 199L1132 2Q1093 -5 1064 -5Q1040 -5 1019 -1Q1004 51 971 163Q939 276 916 359Q894 442 876 518L942 513L1072 97Q1105 193 1141 334Q1110 449 1093 522L1159 517L1289 101Q1305 149 1323 209Q1341 269 1352 311Q1363 354 1381 422Q1399 491 1406 518ZM1821 482L1811 442Q1714 482 1660 482Q1612 482 1592 467Q1573 453 1573 406Q1573 368 1600 343Q1628 318 1667 303Q1706 289 1745 272Q1785 256 1812 224Q1840 192 1840 145Q1840 81 1793 33Q1746 -15 1671 -16Q1616 -16 1568 7Q1520 30 1492 65L1521 95Q1533 90 1556 79Q1580 68 1590 64Q1600 61 1619 57Q1639 53 1661 53Q1708 53 1738 74Q1768 95 1768 133Q1768 158 1754 175Q1740 193 1717 204Q1694 215 1666 225Q1639 235 1611 247Q1584 260 1561 277Q1538 295 1524 325Q1510 355 1510 396Q1510 456 1542 496Q1575 537 1634 537Q1657 537 1686 530Q1715 523 1732 517Q1749 511 1782 497Q1816 484 1821 482Z" fill="#424077" style=""></path></g></g></g></svg>